<?xml version="1.0" encoding="UTF-8" standalone="no"?>
<!-- Created with Inkscape (http://www.inkscape.org/) -->

<svg
   xmlns:dc="http://purl.org/dc/elements/1.1/"
   xmlns:cc="http://creativecommons.org/ns#"
   xmlns:rdf="http://www.w3.org/1999/02/22-rdf-syntax-ns#"
   xmlns:svg="http://www.w3.org/2000/svg"
   xmlns="http://www.w3.org/2000/svg"
   xmlns:sodipodi="http://sodipodi.sourceforge.net/DTD/sodipodi-0.dtd"
   xmlns:inkscape="http://www.inkscape.org/namespaces/inkscape"
   width="744.09448819"
   height="1052.3622047"
   id="svg2"
   version="1.1"
   inkscape:version="0.47 r22583"
   sodipodi:docname="logo.svg">
  <defs
     id="defs4">
    <inkscape:perspective
       sodipodi:type="inkscape:persp3d"
       inkscape:vp_x="0 : 526.18109 : 1"
       inkscape:vp_y="0 : 1000 : 0"
       inkscape:vp_z="744.09448 : 526.18109 : 1"
       inkscape:persp3d-origin="372.04724 : 350.78739 : 1"
       id="perspective10" />
    <inkscape:perspective
       id="perspective2884"
       inkscape:persp3d-origin="0.5 : 0.33333333 : 1"
       inkscape:vp_z="1 : 0.5 : 1"
       inkscape:vp_y="0 : 1000 : 0"
       inkscape:vp_x="0 : 0.5 : 1"
       sodipodi:type="inkscape:persp3d" />
    <inkscape:perspective
       id="perspective2983"
       inkscape:persp3d-origin="0.5 : 0.33333333 : 1"
       inkscape:vp_z="1 : 0.5 : 1"
       inkscape:vp_y="0 : 1000 : 0"
       inkscape:vp_x="0 : 0.5 : 1"
       sodipodi:type="inkscape:persp3d" />
    <inkscape:perspective
       id="perspective3788"
       inkscape:persp3d-origin="0.5 : 0.33333333 : 1"
       inkscape:vp_z="1 : 0.5 : 1"
       inkscape:vp_y="0 : 1000 : 0"
       inkscape:vp_x="0 : 0.5 : 1"
       sodipodi:type="inkscape:persp3d" />
    <inkscape:perspective
       id="perspective3864"
       inkscape:persp3d-origin="0.5 : 0.33333333 : 1"
       inkscape:vp_z="1 : 0.5 : 1"
       inkscape:vp_y="0 : 1000 : 0"
       inkscape:vp_x="0 : 0.5 : 1"
       sodipodi:type="inkscape:persp3d" />
    <inkscape:perspective
       id="perspective2906"
       inkscape:persp3d-origin="0.5 : 0.33333333 : 1"
       inkscape:vp_z="1 : 0.5 : 1"
       inkscape:vp_y="0 : 1000 : 0"
       inkscape:vp_x="0 : 0.5 : 1"
       sodipodi:type="inkscape:persp3d" />
  </defs>
  <sodipodi:namedview
     id="base"
     pagecolor="#ffffff"
     bordercolor="#666666"
     borderopacity="1.0"
     inkscape:pageopacity="0.0"
     inkscape:pageshadow="2"
     inkscape:zoom="0.76957904"
     inkscape:cx="281.84693"
     inkscape:cy="384.09447"
     inkscape:document-units="px"
     inkscape:current-layer="layer1"
     showgrid="false"
     inkscape:window-width="2046"
     inkscape:window-height="1381"
     inkscape:window-x="467"
     inkscape:window-y="0"
     inkscape:window-maximized="0" />
  <metadata
     id="metadata7">
    <rdf:RDF>
      <cc:Work
         rdf:about="">
        <dc:format>image/svg+xml</dc:format>
        <dc:type
           rdf:resource="http://purl.org/dc/dcmitype/StillImage" />
        <dc:title></dc:title>
      </cc:Work>
    </rdf:RDF>
  </metadata>
  <g
     inkscape:label="Layer 1"
     inkscape:groupmode="layer"
     id="layer1">
    <path
       sodipodi:type="arc"
       style="opacity:0.7;fill:#2c89a0;fill-opacity:1;fill-rule:nonzero;stroke:none"
       id="path3684"
       sodipodi:cx="368.38321"
       sodipodi:cy="496.21399"
       sodipodi:rx="302.11322"
       sodipodi:ry="313.1582"
       d="m 670.49643,496.21399 a 302.11322,313.1582 0 1 1 -604.226441,0 302.11322,313.1582 0 1 1 604.226441,0 z"
       transform="matrix(0.8344086,0,0,0.79875518,10.97374,36.839029)" />
    <path
       style="fill:#1bb8ed;fill-opacity:1;stroke:none;stroke-width:0.53755397000000005px;stroke-linecap:butt;stroke-linejoin:miter;stroke-opacity:1"
       d="m 704.60593,111.16418 -3.49674,3.64458 -2.98953,2.49128 -4.33093,0.37891 -5.11465,5.05004 -1.35479,3.73143 -4.32524,6.30451 -6.38526,7.42672 -2.16861,2.06176 c -2.09815,0.98817 -1.23812,0.58968 -3.20237,1.83025 l -2.85416,0.63127 -2.94458,3.82282 -2.65301,1.56757 -4.3342,0.0692 -1.86948,-0.5161 -1.963,1.68605 -1.51052,2.08766 -0.70084,1.80218 -0.70616,1.46878 -8.7679,10.44918 -1.51643,0.65731 -1.54542,0.32599 -0.794,0.73719 -1.10242,0.34685 -1.51968,0.34758 -1.01544,1.34084 -0.38637,1.03539 -0.37941,1.52367 -2.10929,2.33082 -10.46608,-5.6901 -0.2581,-0.63322 0.62347,-1.18731 0.81414,-1.59746 1.15433,-0.43486 4.75609,-3.96939 0.87259,-2.97381 -0.3331,-1.35401 -0.9835,1.43343 -0.748,-0.78114 -0.31874,-0.50869 1.23436,-1.83694 -3.51397,-2.68543 -0.31888,-1.73681 -1.07815,-0.46609 -0.17766,1.64909 -2.134,3.27496 0.76086,0.79194 -0.30546,1.27872 -1.75574,-0.44258 -1.16794,0.007 -0.92329,1.44009 -0.8671,2.62754 -1.38392,2.17196 -1.61759,0.0461 -0.99578,0.61177 -0.44626,1.57721 -2.82638,2.58432 -1.63122,1.52587 -2.30657,-1.01442 -1.42532,1.69863 -0.63029,1.92718 -0.92537,1.41642 1.52954,3.71755 -1.08128,2.36011 -1.67544,0.61161 -0.60853,1.22177 0.93392,1.13451 -21.01419,24.20746 -3.06229,1.11451 -2.71262,0.75004 -0.88839,1.29395 -0.0761,2.12908 -10.79746,12.73724 -0.82329,-0.14259 -0.96559,1.22915 0.23724,1.07623 -8.91404,10.41427 -0.47034,-2.10512 -2.37519,-2.34388 -8.67587,-5.26246 -1.2638,1.63682 -68.96525,-43.59297 8.98386,-10.70654 2.01519,-1.2256 2.77237,-0.61219 3.21097,-3.09493 1.17548,-0.32939 1.04695,-1.11704 0.40783,-2.28927 -0.25688,-4.16276 0.86297,-2.67488 c 0,0 4.23572,-4.85397 5.64563,-15.74439 1.23496,-9.53945 -3.71722,-18.22818 -3.71722,-18.22818 l 2.23059,-2.5799 c 0,0 1.72488,-2.63424 1.9741,-3.05826 0.15813,-0.36123 8.23711,-8.86655 8.06425,-9.08793 -0.34472,-0.15208 -0.36549,-0.5289 -0.78291,-0.635 -0.27383,0.0217 -8.08575,8.51356 -8.57234,8.59581 -0.27284,0.36546 -2.61195,1.72144 -2.74856,1.83825 l -2.77402,2.36512 c -0.18639,0.15944 -7.52701,-5.34707 -17.41955,-4.48556 -13.38121,1.16533 -17.88072,5.91654 -17.88072,5.91654 l -2.63226,-2.01138 -6.32888,6.02671 -1.73682,0.31888 -1.29826,1.65175 -9.33131,10.41501 -1.7482,-0.76519 -1.56476,-2.21208 -27.44391,-0.90184 -4.09322,-2.49167 -1.02032,0.87623 0.63483,1.80457 -14.10395,14.19505 -1.609,-1.21854 -2.14213,2.50062 1.04722,1.33923 -13.04813,12.36181 c -92.24882,-17.30542 -190.89454,14.32466 -255.52306,91.34594 -95.352616,113.63682 -80.531022,283.04871 33.10582,378.40128 113.63675,95.3527 283.04867,80.53101 378.40128,-33.10581 61.93435,-73.81048 77.38001,-171.14729 49.46432,-256.44333 2.58606,-5.77295 4.68205,-8.76818 4.68205,-8.76818 l 15.5956,-20.85976 4.80848,-6.0964 1.56867,-4.01246 -1.68338,-2.75019 -3.1399,-2.63469 -1.55232,-3.97788 25.7761,-31.79025 2.57564,-0.95268 1.4311,-1.49644 1.12553,-5.26146 23.28058,-27.1959 7.12255,-1.58897 1.97601,-2.35492 0.27977,-5.11591 6.57593,-7.83689 1.43761,-2.78476 1.88636,-0.65392 1.79067,-1.61136 1.06766,-0.88038 -2.27772,-1.91123 0.13107,-1.22769 -2.34206,-1.96522 -4.28953,0.85224 -2.39634,-2.44934 0.0677,-7.26748 0.58962,-1.98324 1.13676,-3.49772 1.31734,-1.56995 4.168,-4.96722 2.70227,-2.77617 1.90087,-2.39606 -0.95593,-2.88538 5.48533,-6.53717 c 0.14838,-0.47047 -0.80014,-5.40223 -1.19846,-8.11062 l 3.29336,-3.92487 6.61734,-7.36355 3.75589,-3.95342 8.82218,-9.96505 3.67467,-2.83741 1.152,-2.91479 0.96427,-2.74336 1.06234,-1.21377 0.84033,-1.70708 3.05979,-2.91477 -1.14276,-2.97634 -2.52546,-2.42612 0.37278,-3.37127 -0.82565,-0.71474 z M 473.48394,246.31775 C 575.71761,332.10199 589.05285,484.52454 503.26862,586.75822 417.48437,688.9919 265.0618,702.32716 162.82813,616.54293 60.594494,530.75865 47.259191,378.33609 133.04347,276.10243 218.82771,173.86876 371.25026,160.53352 473.48394,246.31775 z m 4.99389,65.39412 c 0,0 -22.50991,42.8386 -49.05323,54.8006 -33.67403,13.91662 -71.18164,14.53128 -145.00071,6.72404 -43.16109,-3.20451 -68.10991,4.14326 -84.03421,23.62797 -31.18282,38.15474 -28.73158,77.98033 -18.79472,153.56482 2.17841,-37.45167 5.04428,-65.37969 16.37668,-93.84184 13.86744,-29.2718 35.99407,-44.67078 61.97274,-47.64391 92.58739,-6.95564 184.92048,12.79908 218.53345,-97.23168 z m -44.42591,163.56962 c -42.13537,-17.36337 -73.80043,-31.98409 -114.43176,-35.42993 -46.55371,-4.02066 -75.36594,27.81537 -80.80379,64.23187 -6.38193,44.56877 15.18921,77.33091 -48.87343,87.38442 39.99135,-0.93428 84.64488,-6.87083 83.75037,-49.63267 -0.67494,-21.43251 -0.97238,-38.41587 13.4023,-57.78652 20.05163,-25.01939 50.16512,-26.89037 80.42541,-23.71764 22.53749,3.1343 44.50473,9.43416 66.5309,14.95047 z"
       id="path2892" />
    <text
       xml:space="preserve"
       style="font-size:40px;font-style:normal;font-weight:normal;fill:#000000;fill-opacity:1;stroke:none;font-family:Bitstream Vera Sans"
       x="53.275879"
       y="798.97693"
       id="text3686"><tspan
         sodipodi:role="line"
         id="tspan3688"
         x="53.275879"
         y="798.97693">original rotated by 40°</tspan><tspan
         sodipodi:role="line"
         x="53.275879"
         y="848.97693"
         id="tspan3690">color 1: 1BB8EDF</tspan><tspan
         sodipodi:role="line"
         x="53.275879"
         y="898.97693"
         id="tspan3692">color 2: 2C89A0  </tspan></text>
  </g>
</svg>
