<?xml version="1.0" encoding="UTF-8" standalone="no"?>
<!-- Created with Inkscape (http://www.inkscape.org/) -->

<svg
   xmlns:dc="http://purl.org/dc/elements/1.1/"
   xmlns:cc="http://creativecommons.org/ns#"
   xmlns:rdf="http://www.w3.org/1999/02/22-rdf-syntax-ns#"
   xmlns:svg="http://www.w3.org/2000/svg"
   xmlns="http://www.w3.org/2000/svg"
   xmlns:sodipodi="http://sodipodi.sourceforge.net/DTD/sodipodi-0.dtd"
   xmlns:inkscape="http://www.inkscape.org/namespaces/inkscape"
   width="744.09448819"
   height="1052.3622047"
   id="svg2"
   version="1.1"
   inkscape:version="0.47 r22583"
   sodipodi:docname="logo.svg">
  <defs
     id="defs4">
    <inkscape:perspective
       sodipodi:type="inkscape:persp3d"
       inkscape:vp_x="0 : 526.18109 : 1"
       inkscape:vp_y="0 : 1000 : 0"
       inkscape:vp_z="744.09448 : 526.18109 : 1"
       inkscape:persp3d-origin="372.04724 : 350.78739 : 1"
       id="perspective10" />
    <inkscape:perspective
       id="perspective2884"
       inkscape:persp3d-origin="0.5 : 0.33333333 : 1"
       inkscape:vp_z="1 : 0.5 : 1"
       inkscape:vp_y="0 : 1000 : 0"
       inkscape:vp_x="0 : 0.5 : 1"
       sodipodi:type="inkscape:persp3d" />
    <inkscape:perspective
       id="perspective2983"
       inkscape:persp3d-origin="0.5 : 0.33333333 : 1"
       inkscape:vp_z="1 : 0.5 : 1"
       inkscape:vp_y="0 : 1000 : 0"
       inkscape:vp_x="0 : 0.5 : 1"
       sodipodi:type="inkscape:persp3d" />
    <inkscape:perspective
       id="perspective3788"
       inkscape:persp3d-origin="0.5 : 0.33333333 : 1"
       inkscape:vp_z="1 : 0.5 : 1"
       inkscape:vp_y="0 : 1000 : 0"
       inkscape:vp_x="0 : 0.5 : 1"
       sodipodi:type="inkscape:persp3d" />
    <inkscape:perspective
       id="perspective3864"
       inkscape:persp3d-origin="0.5 : 0.33333333 : 1"
       inkscape:vp_z="1 : 0.5 : 1"
       inkscape:vp_y="0 : 1000 : 0"
       inkscape:vp_x="0 : 0.5 : 1"
       sodipodi:type="inkscape:persp3d" />
    <inkscape:perspective
       id="perspective2906"
       inkscape:persp3d-origin="0.5 : 0.33333333 : 1"
       inkscape:vp_z="1 : 0.5 : 1"
       inkscape:vp_y="0 : 1000 : 0"
       inkscape:vp_x="0 : 0.5 : 1"
       sodipodi:type="inkscape:persp3d" />
  </defs>
  <sodipodi:namedview
     id="base"
     pagecolor="#ffffff"
     bordercolor="#666666"
     borderopacity="1.0"
     inkscape:pageopacity="0.0"
     inkscape:pageshadow="2"
     inkscape:zoom="0.76957904"
     inkscape:cx="156.75616"
     inkscape:cy="572.67595"
     inkscape:document-units="px"
     inkscape:current-layer="layer1"
     showgrid="false"
     inkscape:window-width="2046"
     inkscape:window-height="1381"
     inkscape:window-x="467"
     inkscape:window-y="0"
     inkscape:window-maximized="0" />
  <metadata
     id="metadata7">
    <rdf:RDF>
      <cc:Work
         rdf:about="">
        <dc:format>image/svg+xml</dc:format>
        <dc:type
           rdf:resource="http://purl.org/dc/dcmitype/StillImage" />
        <dc:title />
      </cc:Work>
    </rdf:RDF>
  </metadata>
  <g
     inkscape:label="Layer 1"
     inkscape:groupmode="layer"
     id="layer1">
    <text
       xml:space="preserve"
       style="font-size:40px;font-style:normal;font-weight:normal;fill:#000000;fill-opacity:1;stroke:none;font-family:Bitstream Vera Sans"
       x="53.275879"
       y="798.97693"
       id="text3686"><tspan
         sodipodi:role="line"
         id="tspan3688"
         x="53.275879"
         y="798.97693">original rotated by 40°</tspan><tspan
         sodipodi:role="line"
         x="53.275879"
         y="848.97693"
         id="tspan3690">color 1: 1BB8EDF</tspan><tspan
         sodipodi:role="line"
         x="53.275879"
         y="898.97693"
         id="tspan3692">color 2: 2C89A0  </tspan></text>
    <path
       sodipodi:type="arc"
       style="opacity:0.69999999999999996;fill:#2c89a0;fill-opacity:1;fill-rule:nonzero;stroke:none"
       id="path3606"
       sodipodi:cx="365.78439"
       sodipodi:cy="447.48605"
       sodipodi:rx="247.53793"
       sodipodi:ry="247.53793"
       d="m 613.32233,447.48605 a 247.53793,247.53793 0 1 1 -495.07587,0 247.53793,247.53793 0 1 1 495.07587,0 z"
       transform="translate(-45.479409,-16.892352)" />
    <path
       style="fill:#1bb8ed;fill-opacity:1;stroke:none;stroke-width:0.53755397000000005px;stroke-linecap:butt;stroke-linejoin:miter;stroke-opacity:1"
       d="M 704.59375 111.15625 L 701.09375 114.8125 L 698.125 117.3125 L 693.78125 117.6875 L 688.6875 122.71875 L 687.3125 126.46875 L 683 132.75 L 676.59375 140.1875 L 674.4375 142.25 C 672.33935 143.23817 673.21425 142.85318 671.25 144.09375 L 668.375 144.71875 L 665.4375 148.53125 L 662.78125 150.09375 L 658.4375 150.1875 L 656.59375 149.65625 L 654.625 151.34375 L 653.09375 153.4375 L 652.40625 155.21875 L 651.6875 156.6875 L 642.9375 167.15625 L 641.40625 167.8125 L 639.875 168.125 L 639.0625 168.875 L 637.96875 169.21875 L 636.46875 169.5625 L 635.4375 170.90625 L 635.0625 171.9375 L 634.6875 173.46875 L 632.5625 175.8125 L 622.09375 170.09375 L 621.84375 169.46875 L 622.46875 168.28125 L 623.28125 166.6875 L 624.4375 166.25 L 629.1875 162.28125 L 630.0625 159.3125 L 629.71875 157.96875 L 628.75 159.40625 L 628 158.625 L 627.6875 158.09375 L 628.90625 156.25 L 625.40625 153.59375 L 625.09375 151.84375 L 624 151.375 L 623.8125 153.03125 L 621.6875 156.3125 L 622.4375 157.09375 L 622.15625 158.375 L 620.375 157.9375 L 619.21875 157.9375 L 618.3125 159.375 L 617.4375 162 L 616.0625 164.1875 L 614.4375 164.21875 L 613.4375 164.84375 L 613 166.40625 L 610.15625 169 L 608.53125 170.53125 L 606.21875 169.5 L 604.8125 171.21875 L 604.15625 173.125 L 603.25 174.5625 L 604.78125 178.25 L 603.6875 180.625 L 602.03125 181.25 L 601.40625 182.46875 L 602.34375 183.59375 L 581.3125 207.8125 L 578.25 208.90625 L 575.5625 209.65625 L 574.65625 210.96875 L 574.59375 213.09375 L 563.78125 225.8125 L 562.96875 225.6875 L 562 226.90625 L 562.25 228 L 553.3125 238.40625 L 552.84375 236.3125 L 550.46875 233.96875 L 541.8125 228.6875 L 540.53125 230.34375 L 471.5625 186.75 L 480.5625 176.03125 L 482.5625 174.8125 L 485.34375 174.1875 L 488.5625 171.09375 L 489.71875 170.78125 L 490.78125 169.65625 L 491.1875 167.375 L 490.9375 163.1875 L 491.78125 160.53125 C 491.78125 160.53125 496.02759 155.67167 497.4375 144.78125 C 498.67246 135.2418 493.71875 126.5625 493.71875 126.5625 L 495.9375 123.96875 C 495.9375 123.96875 497.68828 121.33027 497.9375 120.90625 C 498.09563 120.54502 506.17286 112.03388 506 111.8125 C 505.65528 111.66042 505.63617 111.2936 505.21875 111.1875 C 504.94492 111.2092 497.11159 119.699 496.625 119.78125 C 496.35216 120.14671 494.01161 121.50819 493.875 121.625 L 491.125 124 C 490.93861 124.15944 483.58004 118.63849 473.6875 119.5 C 460.30629 120.66533 455.8125 125.40625 455.8125 125.40625 L 453.1875 123.40625 L 446.84375 129.4375 L 445.125 129.75 L 443.8125 131.40625 L 434.5 141.8125 L 432.75 141.0625 L 431.15625 138.84375 L 403.71875 137.9375 L 399.625 135.4375 L 398.625 136.3125 L 399.25 138.125 L 385.15625 152.3125 L 383.53125 151.09375 L 381.40625 153.59375 L 382.4375 154.9375 L 369.40625 167.3125 C 277.15743 150.00708 178.50352 181.63497 113.875 258.65625 C 18.522384 372.29307 33.331908 541.70993 146.96875 637.0625 C 260.6055 732.4152 430.02239 717.57432 525.375 603.9375 C 587.30935 530.12702 602.75944 432.79604 574.84375 347.5 C 577.42981 341.72705 579.53125 338.75 579.53125 338.75 L 595.125 317.875 L 599.9375 311.78125 L 601.5 307.78125 L 599.8125 305.03125 L 596.6875 302.375 L 595.125 298.40625 L 620.90625 266.625 L 623.46875 265.65625 L 624.90625 264.15625 L 626.03125 258.90625 L 649.3125 231.71875 L 656.4375 230.125 L 658.40625 227.78125 L 658.6875 222.65625 L 665.25 214.8125 L 666.6875 212.03125 L 668.59375 211.375 L 670.375 209.75 L 671.4375 208.875 L 669.15625 206.96875 L 669.3125 205.75 L 666.96875 203.78125 L 662.65625 204.625 L 660.28125 202.1875 L 660.34375 194.90625 L 660.9375 192.9375 L 662.0625 189.4375 L 663.375 187.875 L 667.5625 182.90625 L 670.25 180.125 L 672.15625 177.71875 L 671.1875 174.84375 L 676.6875 168.3125 C 676.83588 167.84203 675.89832 162.89589 675.5 160.1875 L 678.78125 156.28125 L 685.40625 148.90625 L 689.15625 144.9375 L 697.96875 134.96875 L 701.65625 132.15625 L 702.8125 129.21875 L 703.75 126.5 L 704.8125 125.28125 L 705.65625 123.5625 L 708.71875 120.65625 L 707.59375 117.6875 L 705.0625 115.25 L 705.4375 111.875 L 704.59375 111.15625 z M 320.28125 189.78125 C 374.43828 190.22359 428.74151 208.7819 473.46875 246.3125 C 575.70242 332.09674 589.06548 484.51632 503.28125 586.75 C 417.497 688.98368 265.07742 702.31548 162.84375 616.53125 C 60.610114 530.74697 47.246971 378.32741 133.03125 276.09375 C 181.28489 218.58731 250.65079 189.21253 320.28125 189.78125 z M 353.0625 246.875 C 353.0625 246.875 363.36309 294.14986 350.71875 320.375 C 333.86838 352.681 305.53584 377.28071 243.96875 418.75 C 208.84562 444.03862 194.42419 465.71291 194.75 490.875 C 195.38797 540.14716 222.86565 569.07996 279.0625 620.59375 C 256.65779 590.50385 240.92649 567.24385 231.3125 538.15625 C 223.12002 506.81893 230.13527 480.82007 248.125 461.84375 C 314.58005 397.00139 398.03988 352.76945 353.0625 246.875 z M 424.15625 400.71875 C 380.71772 414.50173 347.0591 423.64735 313.71875 447.125 C 311.32833 448.80277 309.07679 450.57847 306.96875 452.375 C 275.34834 479.32286 275.0852 518.88247 293.125 548.3125 C 316.88441 586.55639 354.45631 597.77614 311.84375 646.65625 C 341.87836 620.23461 372.26576 586.99499 344.09375 554.8125 C 329.80016 538.82809 318.65832 526.01614 317.21875 501.9375 C 316.49704 469.88259 338.37363 449.08299 363.59375 432.0625 C 382.87316 419.97669 403.7374 410.65116 424.15625 400.71875 z "
       id="path2829" />
  </g>
</svg>
