<?xml version="1.0" encoding="UTF-8" standalone="no"?>
<!-- Created with Inkscape (http://www.inkscape.org/) -->

<svg
   xmlns:dc="http://purl.org/dc/elements/1.1/"
   xmlns:cc="http://creativecommons.org/ns#"
   xmlns:rdf="http://www.w3.org/1999/02/22-rdf-syntax-ns#"
   xmlns:svg="http://www.w3.org/2000/svg"
   xmlns="http://www.w3.org/2000/svg"
   xmlns:sodipodi="http://sodipodi.sourceforge.net/DTD/sodipodi-0.dtd"
   xmlns:inkscape="http://www.inkscape.org/namespaces/inkscape"
   width="744.09448819"
   height="1052.3622047"
   id="svg2"
   version="1.1"
   inkscape:version="0.47 r22583"
   sodipodi:docname="logo.svg">
  <defs
     id="defs4">
    <inkscape:perspective
       sodipodi:type="inkscape:persp3d"
       inkscape:vp_x="0 : 526.18109 : 1"
       inkscape:vp_y="0 : 1000 : 0"
       inkscape:vp_z="744.09448 : 526.18109 : 1"
       inkscape:persp3d-origin="372.04724 : 350.78739 : 1"
       id="perspective10" />
    <inkscape:perspective
       id="perspective2884"
       inkscape:persp3d-origin="0.5 : 0.33333333 : 1"
       inkscape:vp_z="1 : 0.5 : 1"
       inkscape:vp_y="0 : 1000 : 0"
       inkscape:vp_x="0 : 0.5 : 1"
       sodipodi:type="inkscape:persp3d" />
    <inkscape:perspective
       id="perspective2983"
       inkscape:persp3d-origin="0.5 : 0.33333333 : 1"
       inkscape:vp_z="1 : 0.5 : 1"
       inkscape:vp_y="0 : 1000 : 0"
       inkscape:vp_x="0 : 0.5 : 1"
       sodipodi:type="inkscape:persp3d" />
    <inkscape:perspective
       id="perspective3788"
       inkscape:persp3d-origin="0.5 : 0.33333333 : 1"
       inkscape:vp_z="1 : 0.5 : 1"
       inkscape:vp_y="0 : 1000 : 0"
       inkscape:vp_x="0 : 0.5 : 1"
       sodipodi:type="inkscape:persp3d" />
    <inkscape:perspective
       id="perspective3864"
       inkscape:persp3d-origin="0.5 : 0.33333333 : 1"
       inkscape:vp_z="1 : 0.5 : 1"
       inkscape:vp_y="0 : 1000 : 0"
       inkscape:vp_x="0 : 0.5 : 1"
       sodipodi:type="inkscape:persp3d" />
  </defs>
  <sodipodi:namedview
     id="base"
     pagecolor="#ffffff"
     bordercolor="#666666"
     borderopacity="1.0"
     inkscape:pageopacity="0.0"
     inkscape:pageshadow="2"
     inkscape:zoom="0.76957904"
     inkscape:cx="524.18721"
     inkscape:cy="384.09447"
     inkscape:document-units="px"
     inkscape:current-layer="layer1"
     showgrid="false"
     inkscape:window-width="2046"
     inkscape:window-height="1381"
     inkscape:window-x="467"
     inkscape:window-y="0"
     inkscape:window-maximized="0" />
  <metadata
     id="metadata7">
    <rdf:RDF>
      <cc:Work
         rdf:about="">
        <dc:format>image/svg+xml</dc:format>
        <dc:type
           rdf:resource="http://purl.org/dc/dcmitype/StillImage" />
        <dc:title></dc:title>
      </cc:Work>
    </rdf:RDF>
  </metadata>
  <g
     inkscape:label="Layer 1"
     inkscape:groupmode="layer"
     id="layer1">
    <path
       style="fill:#000000;fill-opacity:1;stroke:#000000;stroke-width:0.53755397px;stroke-linecap:butt;stroke-linejoin:miter;stroke-opacity:1"
       d="m 454.79577,136.33832 -0.33597,5.03957 -0.68875,3.83007 -3.07413,3.07413 -0.67194,7.15619 1.36068,3.72928 0.73914,7.60975 -0.11759,9.79356 -0.33598,2.97335 c -0.97209,2.10565 -0.56941,1.24757 -1.27669,3.4605 l -1.78064,2.3182 0.20158,4.82119 -1.02471,2.90615 -3.27572,2.83896 -1.76385,0.80633 -0.41997,2.55338 0.18479,2.57018 0.62155,1.83104 0.40316,1.57907 0,13.64043 -0.73914,1.47827 -0.97431,1.2431 -0.13439,1.0751 -0.62155,0.97432 -0.94072,1.24309 0.084,1.67986 0.36956,1.04151 0.68875,1.41108 -0.11759,3.14133 -11.675,2.3686 -0.60475,-0.31917 -0.28558,-1.31029 -0.40316,-1.74705 0.60474,-1.07511 1.09191,-6.09788 -1.24309,-2.83896 -1.12551,-0.82312 0.16799,1.73025 -1.07511,-0.11759 -0.57115,-0.18479 -0.23518,-2.20061 -4.41802,0.20158 -1.36068,-1.1255 -1.12551,0.33597 0.92392,1.37748 0.47036,3.88047 1.09191,0.11759 0.58795,1.1759 -1.62946,0.78953 -0.89033,0.75594 0.21839,1.69665 1.02471,2.57018 0.33597,2.55338 -1.2095,1.07511 -0.36957,1.10871 0.67195,1.49507 -0.50396,3.79647 -0.26878,2.21741 -2.41899,0.70554 0,2.21741 0.75594,1.88144 0.20158,1.67986 3.56129,1.86464 0.68874,2.50298 -0.89032,1.54547 0.31917,1.32709 1.44468,0.26877 -0.53755,32.05166 -1.62946,2.82216 -1.59587,2.3182 0.15119,1.56227 1.31029,1.67985 -0.084,16.69777 -0.72233,0.41997 0.0504,1.56226 0.87353,0.67194 -0.13439,13.70763 -1.71345,-1.31029 -3.32612,-0.26877 -10.02874,1.54546 0.084,2.06623 -80.85147,10.93586 0,-13.9764 0.75593,-2.23421 1.73025,-2.25101 0.47036,-4.43482 0.68874,-1.00791 0.084,-1.52867 -1.1591,-2.01583 -2.87255,-3.02374 -1.05831,-2.60378 c 0,0 0.12468,-6.44103 -5.7955,-15.68985 -5.1858,-8.10146 -14.5644,-11.57421 -14.5644,-11.57421 l 0.0504,-3.41011 c 0,0 -0.37192,-3.12668 -0.45356,-3.61169 -0.11106,-0.37837 0.61068,-12.08689 0.33597,-12.14536 -0.36183,0.10508 -0.61996,-0.17023 -1.00792,0.0168 -0.19582,0.19264 -0.72163,11.71919 -1.04151,12.09497 0.0259,0.45534 -0.89435,2.99763 -0.92392,3.17492 l -0.60475,3.5949 c -0.0403,0.24194 -9.20305,0.74217 -16.22741,7.76093 -9.50154,9.49397 -9.89435,16.02583 -9.89435,16.02583 l -3.30932,0.15118 -0.97431,8.68486 -1.12551,1.36068 0.0672,2.09982 -0.45356,13.97641 -1.83105,0.53755 -2.62057,-0.68874 -21.60295,16.94975 -4.7372,0.72234 -0.21838,1.32708 1.64626,0.97432 -1.67985,19.93989 -2.01583,0.10079 -0.0336,3.29252 1.66306,0.35277 -2.04943,17.85687 C 152.30594,440.85764 97.070356,528.49594 97.070356,629.04008 c 0,148.34233 120.249864,268.59223 268.592184,268.59218 148.34234,1.1e-4 268.5922,-120.24985 268.5922,-268.59218 0,-96.35274 -50.73483,-180.84534 -126.94673,-228.24204 -1.72975,-6.08462 -2.04942,-9.72637 -2.04942,-9.72637 l -1.46147,-26.00417 -0.23518,-7.76094 -1.37749,-4.08205 -3.05733,-1.02471 -4.09885,0 -3.74608,-2.04942 -0.68874,-40.9213 1.36068,-2.38539 0.13439,-2.06623 -2.51979,-4.75399 0.35277,-35.79773 4.43482,-5.79551 0,-3.07413 -3.07413,-4.09885 0,-10.23033 -0.68874,-3.05733 1.02471,-1.71346 0.33597,-2.38539 0.25198,-1.36069 -2.97335,0 -0.68874,-1.02471 -3.05734,0 -2.73816,3.41011 -3.41011,-0.33597 -4.6196,-5.61072 -0.82313,-1.89824 -1.37748,-3.41011 0,-2.04942 0,-6.48425 0.28557,-3.86366 -0.084,-3.05734 -2.58698,-1.59587 0,-8.53366 c -0.18875,-0.45578 -4.08543,-3.62403 -6.13148,-5.44274 l 0,-5.12356 0.33598,-9.89435 0.33597,-5.44274 0.35277,-13.30446 0.99111,-4.53561 -0.99111,-2.97335 -1.02472,-2.72136 0.0336,-1.61266 -0.45356,-1.84785 0.47036,-4.19964 -2.78856,-1.54546 -3.4941,-0.23518 -1.88144,-2.82216 -1.09191,-0.0168 z m -90.17468,252.096 c 133.45658,0 241.6473,108.19072 241.6473,241.6473 0,133.4566 -108.19072,241.64734 -241.6473,241.64734 -133.45658,-5e-5 -241.64735,-108.19074 -241.6473,-241.64734 0,-133.45658 108.19072,-241.6473 241.6473,-241.6473 z m 45.86007,46.88479 c 0,0 10.29253,47.28536 -2.3518,73.5105 -16.85038,32.306 -45.18778,56.88628 -106.75486,98.35557 -35.12313,25.28862 -49.51199,46.95413 -49.18618,72.11623 0.63797,49.27216 28.11512,78.2047 84.31198,129.71849 -22.40472,-30.0899 -38.16112,-53.32615 -47.77511,-82.41375 -8.19248,-31.33732 -1.14077,-57.35634 16.84896,-76.33266 66.45505,-64.84236 149.88439,-109.05993 104.90701,-214.95438 z m 71.10831,153.85802 c -43.43853,13.78298 -77.09339,22.93677 -110.43374,46.41442 -38.24664,26.84414 -39.85428,69.7521 -20.61184,101.14414 23.75941,38.24388 61.34296,49.47548 18.7304,98.35558 30.03461,-26.42164 60.42526,-59.67204 32.25324,-91.85453 -14.29359,-15.98441 -25.43813,-28.80323 -26.8777,-52.88188 -0.72172,-32.0549 21.14391,-52.84473 46.36403,-69.86522 19.27941,-12.0858 40.15676,-21.3801 60.57561,-31.31251 z"
       id="path2892" />
  </g>
</svg>
